<svg width="80" height="16" viewBox="0 0 80 16" fill="none" xmlns="http://www.w3.org/2000/svg">
<rect width="80" height="16" fill="white"/>
<line x1="5.5769" y1="2" x2="5.5769" y2="7" stroke="black"/>
<line x1="3" y1="4.5" x2="8" y2="4.5" stroke="black"/>
<line x1="16.5769" y1="2" x2="16.5769" y2="7" stroke="black"/>
<line x1="14" y1="4.5" x2="19" y2="4.5" stroke="black"/>
<line x1="10.5769" y1="9" x2="10.5769" y2="14" stroke="black"/>
<line x1="8" y1="11.5" x2="13" y2="11.5" stroke="black"/>
<line x1="22.5769" y1="9" x2="22.5769" y2="14" stroke="black"/>
<line x1="20" y1="11.5" x2="25" y2="11.5" stroke="black"/>
<line x1="32.5769" y1="9" x2="32.5769" y2="14" stroke="black"/>
<line x1="30" y1="11.5" x2="35" y2="11.5" stroke="black"/>
<line x1="42.5769" y1="9" x2="42.5769" y2="14" stroke="black"/>
<line x1="40" y1="11.5" x2="45" y2="11.5" stroke="black"/>
<line x1="53.5769" y1="9" x2="53.5769" y2="14" stroke="black"/>
<line x1="51" y1="11.5" x2="56" y2="11.5" stroke="black"/>
<line x1="62.5769" y1="9" x2="62.5769" y2="14" stroke="black"/>
<line x1="60" y1="11.5" x2="65" y2="11.5" stroke="black"/>
<line x1="72.5769" y1="9" x2="72.5769" y2="14" stroke="black"/>
<line x1="70" y1="11.5" x2="75" y2="11.5" stroke="black"/>
<line x1="27.5769" y1="2" x2="27.5769" y2="7" stroke="black"/>
<line x1="25" y1="4.5" x2="30" y2="4.5" stroke="black"/>
<line x1="37.5769" y1="2" x2="37.5769" y2="7" stroke="black"/>
<line x1="35" y1="4.5" x2="40" y2="4.5" stroke="black"/>
<line x1="47.5769" y1="2" x2="47.5769" y2="7" stroke="black"/>
<line x1="45" y1="4.5" x2="50" y2="4.5" stroke="black"/>
<line x1="57.5769" y1="2" x2="57.5769" y2="7" stroke="black"/>
<line x1="55" y1="4.5" x2="60" y2="4.5" stroke="black"/>
<line x1="67.5769" y1="2" x2="67.5769" y2="7" stroke="black"/>
<line x1="65" y1="4.5" x2="70" y2="4.5" stroke="black"/>
<line x1="77.5769" y1="2" x2="77.5769" y2="7" stroke="black"/>
<line x1="75" y1="4.5" x2="80" y2="4.5" stroke="black"/>
</svg>
